<?xml version="1.0" encoding="UTF-8" standalone="no"?>
<svg width="45px" height="13px" viewBox="0 0 45 13" version="1.1" xmlns="http://www.w3.org/2000/svg" xmlns:xlink="http://www.w3.org/1999/xlink" xmlns:sketch="http://www.bohemiancoding.com/sketch/ns">
    <!-- Generator: Sketch 3.4.4 (17249) - http://www.bohemiancoding.com/sketch -->
    <title>logo-crew</title>
    <desc>Created with Sketch.</desc>
    <defs></defs>
    <g id="Page-1" stroke="none" stroke-width="1" fill="none" fill-rule="evenodd" sketch:type="MSPage">
        <g id="Desktop---New-home-2" sketch:type="MSArtboardGroup" transform="translate(-474.000000, -2093.000000)" fill="#000000">
            <g id="Footer" sketch:type="MSLayerGroup" transform="translate(411.000000, 2091.000000)">
                <path d="M78.1593876,6.15614231 C79.0056898,5.3309977 80.1587765,4.82321639 81.4388085,4.82321639 L81.4388085,6.24077253 C79.6298377,6.24077253 78.1593876,7.71122255 78.1593876,9.52019344 L78.1593876,13.3602895 L78.995111,13.3602895 L78.995111,14.7672669 L75.8849506,14.7672669 L75.8849506,13.3497108 L76.7418315,13.3497108 L76.7418315,6.41003297 L75.8849506,6.41003297 L75.8849506,4.99247683 L78.1593876,4.99247683 L78.1593876,6.15614231 L78.1593876,6.15614231 Z M69.5905782,13.5824439 L69.4847904,13.5824439 C68.0672342,13.5507075 66.7554659,12.9688748 65.7822184,11.9215759 C63.9520899,9.95392331 63.9520899,6.86492038 65.7822184,4.88668906 C66.8189385,3.76533868 68.5009641,3.21524227 70.0666231,3.4797117 C70.7965587,3.60665702 72.1294847,4.01922933 72.7430537,5.40504914 L72.9334717,5.82820022 L74.1288735,5.82820022 L74.1288735,2.14678578 L72.7007386,2.14678578 L72.7007386,3.12003328 C72.0342757,2.6016732 71.2197098,2.24199477 70.2993562,2.08331312 C68.2470735,1.74479225 66.1207393,2.45357032 64.7454982,3.92402034 C62.4181673,6.43119052 62.4181673,10.3664956 64.7454982,12.8842446 C65.9726364,14.2171705 67.6546619,14.9682637 69.4636328,15 L69.5905782,15 C71.3466552,15 72.9969444,14.3123795 74.2558189,13.0640838 L73.250835,12.0591 C72.2670088,13.053505 70.976398,13.5824439 69.5905782,13.5824439 L69.5905782,13.5824439 Z M90.7375537,6.28308764 C91.6896436,7.23517758 92.2080037,8.49405206 92.2080037,9.82697798 L92.2080037,10.535756 L83.6180366,10.535756 C83.7026669,10.9589071 83.8719273,11.3609007 84.1152392,11.7311579 C84.8028597,12.7572992 85.8924737,13.4237622 87.0984543,13.5401288 C88.3044349,13.6564953 89.4892579,13.2333442 90.3461389,12.3764633 L91.3511227,13.3814471 C90.3249813,14.4075885 88.9391615,14.9788424 87.5004478,14.9788424 C87.3206086,14.9788424 87.1407694,14.9682637 86.9609302,14.9576849 C85.3317985,14.7990032 83.8613485,13.910386 82.9409949,12.5245662 C81.9783262,11.0858525 81.8725384,9.23456646 82.6447891,7.67948622 C83.4064611,6.15614231 84.7711233,5.14057971 86.3896762,4.87611028 C87.965914,4.62221963 89.5950457,5.15115849 90.7375537,6.28308764 L90.7375537,6.28308764 Z M90.7163961,9.12877869 C90.578872,8.44115818 90.2403511,7.80643155 89.7325698,7.28807147 C88.918004,6.47350563 87.7437597,6.09266965 86.6118306,6.28308764 C85.4481651,6.47350563 84.4643388,7.21402003 83.9142424,8.32479163 C83.7872971,8.58926106 83.6920881,8.85373048 83.6286154,9.12877869 L90.7163961,9.12877869 L90.7163961,9.12877869 Z M104.743855,4.99247683 L104.743855,6.41003297 L105.600736,6.41003297 L103.463823,12.2283604 L101.390382,6.41003297 L102.247263,6.41003297 L102.247263,4.99247683 L100.882601,4.99247683 L99.7083567,4.99247683 L98.3436944,4.99247683 L98.3436944,6.41003297 L99.2005754,6.41003297 L97.127135,12.2283604 L94.9902221,6.41003297 L95.847103,6.41003297 L95.847103,4.99247683 L92.6099972,4.99247683 L92.6099972,6.41003297 L93.4668782,6.41003297 L96.5453023,14.7672669 L97.7195466,14.7672669 L100.290189,7.56311967 L102.871411,14.7672669 L104.045655,14.7672669 L107.124079,6.41003297 L107.98096,6.41003297 L107.98096,4.99247683 L104.743855,4.99247683 L104.743855,4.99247683 Z" id="logo-crew" sketch:type="MSShapeGroup"></path>
            </g>
        </g>
    </g>
</svg>