<?xml version="1.0" encoding="UTF-8" standalone="no"?>
<svg width="150px" height="23px" viewBox="0 0 150 23" version="1.1" xmlns="http://www.w3.org/2000/svg" xmlns:xlink="http://www.w3.org/1999/xlink" xmlns:sketch="http://www.bohemiancoding.com/sketch/ns">
    <!-- Generator: Sketch 3.4.4 (17249) - http://www.bohemiancoding.com/sketch -->
    <title>logo-fastcompany</title>
    <desc>Created with Sketch.</desc>
    <defs></defs>
    <g id="Page-1" stroke="none" stroke-width="1" fill="none" fill-rule="evenodd" sketch:type="MSPage">
        <g id="Desktop---New-home-2" sketch:type="MSArtboardGroup" transform="translate(-410.000000, -1704.000000)" fill="#000000" opacity="0.2">
            <g id="Logos" sketch:type="MSLayerGroup" transform="translate(410.000000, 1686.000000)">
                <path d="M71.3776722,24.0570071 C71.3776722,27.0261283 71.0213777,36.4085511 71.0213777,36.4085511 C71.0213777,38.1900238 71.6152019,39.0213777 73.3966746,39.0213777 L73.3966746,39.8527316 L66.6270784,39.8527316 L66.6270784,39.0213777 C68.2897862,39.0213777 69.239905,38.1900238 69.239905,36.4085511 L69.8337292,21.087886 C69.3586698,19.9002375 68.8836105,19.4251781 67.5771971,19.4251781 L67.5771971,18.7125891 L72.6840855,18.7125891 L78.1472684,32.9643705 L83.7292162,18.7125891 L88.3610451,18.7125891 L88.3610451,19.4251781 C87.0546318,19.4251781 86.3420428,20.0190024 86.3420428,21.4441805 L86.935867,36.2897862 C86.935867,38.5463183 87.2921615,39.1401425 89.192399,39.1401425 L89.192399,39.8527316 L81.4726841,39.8527316 L81.4726841,39.0213777 C83.0166271,39.0213777 83.7292162,38.5463183 83.6104513,36.1710214 C83.6104513,36.1710214 83.2541568,25.8384798 83.2541568,23.9382423 L79.5724466,34.152019 C79.0973872,35.4584323 78.6223278,37.0023753 78.1472684,38.5463183 L76.95962,38.6650831 C76.6033254,37.5961995 75.8907363,35.5771971 75.8907363,35.5771971 C75.8907363,35.5771971 72.4465558,26.9073634 71.3776722,24.0570071 Z M64.9643705,39.9714964 C64.608076,39.8527316 64.1330166,39.8527316 63.7767221,39.8527316 C62.9453682,39.8527316 61.52019,40.2090261 59.8574822,40.2090261 C53.3254157,40.2090261 48.456057,36.2897862 48.456057,29.0451306 C48.456057,22.8693587 52.9691211,18.1187648 59.976247,18.1187648 C61.6389549,18.1187648 63.4204276,18.4750594 64.9643705,19.0688836 C65.3206651,18.7125891 65.3206651,18.5938242 65.6769596,18.2375297 L66.2707838,18.2375297 C66.152019,19.3064133 65.7957245,22.9881235 65.7957245,22.9881235 L65.2019002,22.9881235 C64.8456057,20.8503563 63.6579572,19.4251781 60.2137767,19.4251781 C55.9382423,19.4251781 52.1377672,22.7505938 52.1377672,28.9263658 C52.1377672,35.8147268 56.0570071,38.9026128 60.4513064,38.9026128 C63.3016627,38.9026128 64.9643705,37.239905 66.0332542,35.2209026 L66.7458432,35.5771971 L64.9643705,39.9714964 Z M45.9619952,22.631829 L45.2494062,22.631829 C45.1306413,20.7315914 44.5368171,20.1377672 42.9928741,20.1377672 L40.023753,20.1377672 L40.023753,35.9334917 C40.023753,38.5463183 40.4988124,39.0213777 42.280285,39.0213777 L42.280285,39.8527316 L34.6793349,39.8527316 L34.6793349,39.0213777 C36.3420428,39.0213777 36.935867,38.5463183 36.935867,35.8147268 L36.935867,20.1377672 L33.9667458,20.1377672 C32.0665083,20.1377672 31.7102138,20.6128266 31.2351544,22.631829 L30.5225653,22.631829 L30.9976247,18.1187648 L31.4726841,18.2375297 C31.7102138,18.7125891 32.0665083,18.7125891 33.2541568,18.7125891 L42.9928741,18.7125891 C44.7743468,18.7125891 45.2494062,18.7125891 45.6057007,18.1187648 L46.1995249,18.1187648 L45.9619952,22.631829 Z M24.584323,40.327791 C23.1591449,40.327791 22.0902613,40.0902613 21.2589074,39.8527316 C20.4275534,39.6152019 19.8337292,39.3776722 19.5961995,39.1401425 C19.239905,39.4964371 18.8836105,40.0902613 18.8836105,40.0902613 L18.2897862,39.8527316 L18.7648456,35.1021378 L19.4774347,35.2209026 C19.8337292,37.4774347 21.3776722,39.0213777 24.4655582,39.0213777 C26.8408551,39.0213777 28.5035629,37.0023753 28.5035629,34.7458432 C28.5035629,32.9643705 27.7909739,32.0142518 25.415677,30.2327791 C24.584323,29.7577197 23.871734,29.2826603 23.2779097,28.807601 C21.0213777,27.3824228 19.5961995,25.8384798 19.5961995,23.2256532 C19.5961995,20.2565321 22.0902613,18.2375297 25.415677,18.2375297 C27.3159145,18.2375297 28.5035629,18.8313539 28.9786223,19.0688836 L29.6912114,18.2375297 L30.1662708,18.3562945 L29.6912114,22.631829 L28.9786223,22.5130641 C28.9786223,20.4940618 27.7909739,19.543943 25.7719715,19.543943 C23.871734,19.543943 22.4465558,20.4940618 22.4465558,22.5130641 C22.4465558,24.175772 23.7529691,25.3634204 25.2969121,26.3135392 C26.128266,26.7885986 26.7220903,27.263658 27.3159145,27.6199525 C30.8788599,30.1140143 31.5914489,31.7767221 31.5914489,34.152019 C31.7102138,37.7149644 28.9786223,40.327791 24.584323,40.327791 Z M13.1828979,22.631829 L12.3515439,22.631829 C12.3515439,20.8503563 11.52019,20.1377672 9.97624703,20.1377672 L5.34441805,20.1377672 L5.34441805,28.0950119 L8.31353919,28.0950119 C9.85748219,28.0950119 10.0950119,27.263658 10.3325416,25.9572447 L11.0451306,25.9572447 L11.0451306,31.5391924 L10.3325416,31.5391924 C10.0950119,29.9952494 9.85748219,29.4014252 8.19477435,29.4014252 L5.34441805,29.4014252 L5.34441805,36.1710214 C5.34441805,38.6650831 5.93824228,39.0213777 7.60095012,39.0213777 L7.60095012,39.8527316 L0,39.8527316 L0,39.0213777 C1.90023753,39.0213777 2.25653207,38.5463183 2.25653207,36.1710214 L2.25653207,21.4441805 C2.25653207,20.0190024 1.66270784,19.4251781 2.63710932e-16,19.4251781 L2.63710932e-16,18.7125891 L10.4513064,18.7125891 C12.2327791,18.7125891 12.7078385,18.5938242 12.9453682,18 L13.6579572,18 L13.1828979,22.631829 Z M121.733967,23.8194774 L121.733967,35.9334917 C121.733967,38.5463183 122.327791,39.0213777 123.990499,39.0213777 L123.990499,39.8527316 L112.114014,39.8527316 L112.114014,39.0213777 C113.064133,39.0213777 113.776722,38.6650831 113.776722,38.0712589 C113.776722,37.7149644 113.657957,37.0023753 113.420428,36.2897862 L112.470309,33.3206651 L105.938242,33.3206651 C105.819477,33.6769596 104.631829,37.0023753 104.631829,37.9524941 C104.631829,38.783848 105.581948,38.9026128 106.175772,38.9026128 L106.175772,39.8527316 L100.593824,39.8527316 L100.593824,39.0213777 C101.543943,39.0213777 102.375297,38.9026128 103.087886,36.7648456 L108.313539,20.3752969 C107.957245,19.6627078 107.60095,19.4251781 106.888361,19.4251781 L106.888361,18.7125891 L111.401425,18.7125891 L116.864608,35.9334917 C117.339667,37.7149644 117.814727,38.6650831 118.646081,39.0213777 C119.833729,38.6650831 120.190024,38.1900238 120.190024,35.9334917 L120.190024,21.4441805 C119.239905,20.2565321 119.239905,19.4251781 117.458432,19.4251781 L117.458432,18.7125891 L122.565321,18.7125891 L130.997625,33.0831354 L130.997625,22.1567696 C130.997625,19.9002375 130.522565,19.4251781 128.741093,19.4251781 L128.741093,18.7125891 L140.023753,18.7125891 L140.023753,19.4251781 C139.311164,19.4251781 138.71734,19.7814727 138.71734,20.3752969 C138.71734,20.8503563 138.954869,21.3254157 139.073634,22.0380048 L142.280285,28.9263658 L145.368171,22.1567696 C145.84323,21.2066508 145.961995,20.7315914 145.961995,20.2565321 C145.961995,19.6627078 145.605701,19.3064133 144.655582,19.3064133 L144.655582,18.5938242 L150,18.5938242 L150,19.3064133 C148.693587,19.3064133 147.862233,20.4940618 147.268409,21.9192399 L143.111639,30.3515439 L143.111639,35.9334917 C143.111639,38.3087886 143.705463,38.9026128 145.368171,38.9026128 L145.368171,39.8527316 L137.767221,39.8527316 L137.767221,39.0213777 C139.429929,39.0213777 140.023753,38.4275534 140.023753,36.0522565 L140.023753,31.3016627 L135.629454,21.9192399 C134.7981,20.1377672 134.56057,19.6627078 133.966746,19.4251781 C133.016627,19.7814727 132.660333,20.4940618 132.660333,22.1567696 L132.660333,37.7149644 C132.660333,37.7149644 132.779097,38.9026128 132.897862,40.327791 L131.591449,40.4465558 L121.733967,23.8194774 Z M109.144893,22.8693587 L106.294537,32.0142518 L112.114014,32.0142518 L109.144893,22.8693587 Z M96.6745843,32.0142518 L95.1306413,32.0142518 L95.1306413,36.2897862 C95.1306413,38.5463183 95.7244656,39.0213777 97.5059382,39.0213777 L97.5059382,39.8527316 L89.7862233,39.8527316 L89.7862233,39.0213777 C91.4489311,39.0213777 92.0427553,38.4275534 92.0427553,36.1710214 L92.0427553,22.0380048 C92.0427553,19.7814727 91.4489311,19.4251781 89.7862233,19.4251781 L89.7862233,18.7125891 L95.6057007,18.7125891 C101.187648,18.7125891 104.513064,20.3752969 104.513064,25.0071259 C104.513064,29.8764846 100.475059,32.0142518 96.6745843,32.0142518 Z M95.7244656,20.1377672 L95.2494062,20.1377672 L95.2494062,30.4703088 L96.1995249,30.4703088 C99.5249406,30.4703088 101.187648,28.9263658 101.187648,25.1258907 C101.187648,21.3254157 99.6437055,20.1377672 95.7244656,20.1377672 Z M61.52019,35.8147268 C57.719715,35.8147268 55.1068884,33.0831354 55.1068884,29.1638955 C55.1068884,25.4821853 57.8384798,22.5130641 61.52019,22.5130641 C65.2019002,22.5130641 67.8147268,25.3634204 67.8147268,29.1638955 C67.9334917,32.8456057 65.0831354,35.8147268 61.52019,35.8147268 Z M61.52019,23.7007126 C58.9073634,23.7007126 57.9572447,26.1947743 57.9572447,29.1638955 C57.9572447,31.8954869 58.7885986,34.6270784 61.52019,34.6270784 C64.1330166,34.6270784 64.9643705,31.8954869 64.9643705,29.0451306 C64.9643705,26.3135392 64.0142518,23.7007126 61.52019,23.7007126 Z M17.2209026,34.6270784 L17.2209026,33.9144893 C18.1710214,33.9144893 18.4085511,33.5581948 18.4085511,33.3206651 C18.4085511,32.9643705 18.2897862,32.608076 18.1710214,32.3705463 C18.1710214,32.3705463 17.9334917,31.5391924 17.8147268,30.9453682 L13.8954869,30.9453682 L13.5391924,32.2517815 C13.4204276,32.608076 13.3016627,32.8456057 13.3016627,33.2019002 C13.3016627,33.5581948 13.6579572,33.9144893 14.2517815,33.9144893 L14.2517815,34.6270784 L10.3325416,34.6270784 L10.3325416,33.9144893 C11.2826603,33.9144893 11.7577197,33.5581948 12.1140143,32.4893112 L15.0831354,23.4631829 C14.9643705,23.1068884 14.7268409,22.7505938 14.1330166,22.7505938 L14.1330166,22.0380048 L17.3396675,22.0380048 C19.9524941,29.6389549 20.6650831,31.6579572 20.6650831,31.6579572 C21.1401425,33.3206651 21.6152019,33.9144893 22.4465558,33.9144893 L22.4465558,34.6270784 L17.2209026,34.6270784 Z M15.7957245,24.888361 L14.2517815,29.8764846 L17.3396675,29.8764846 L15.7957245,24.888361 L15.7957245,24.888361 L15.7957245,24.888361 L15.7957245,24.888361 L15.7957245,24.888361 Z" id="logo-fastcompany" sketch:type="MSShapeGroup"></path>
            </g>
        </g>
    </g>
</svg>