<?xml version="1.0" encoding="UTF-8" standalone="no"?>
<svg width="130px" height="58px" viewBox="0 0 130 58" version="1.1" xmlns="http://www.w3.org/2000/svg" xmlns:xlink="http://www.w3.org/1999/xlink" xmlns:sketch="http://www.bohemiancoding.com/sketch/ns">
    <!-- Generator: Sketch 3.4.4 (17249) - http://www.bohemiancoding.com/sketch -->
    <title>logo-thenextweb</title>
    <desc>Created with Sketch.</desc>
    <defs></defs>
    <g id="Page-1" stroke="none" stroke-width="1" fill="none" fill-rule="evenodd" sketch:type="MSPage">
        <g id="Desktop---New-home-2" sketch:type="MSArtboardGroup" transform="translate(-655.000000, -1686.000000)" fill="#000000" opacity="0.2">
            <g id="Logos" sketch:type="MSLayerGroup" transform="translate(410.000000, 1686.000000)">
                <path d="M361.224399,0 L354.857524,18.7533393 L350.921638,3.47284061 C350.111309,0.347284061 349.185218,0 348.49065,0 C347.796082,0 347.217275,1.7364203 346.985752,2.54674978 L343.39715,18.8691006 L348.259127,40.5164737 L360.066785,40.5164737 L375,0 L361.224399,0 L361.224399,0 Z M280.654497,0.347284061 C280.307213,0 279.844167,0 279.844167,0 L245,0 L249.28317,11.5761354 L259.933215,11.5761354 L259.933215,40.5164737 L271.50935,40.5164737 L271.50935,11.5761354 L281.464826,11.5761354 L281.464826,2.31522707 C281.464826,1.38913624 281.233304,0.694568121 280.654497,0.347284061 L280.654497,0.347284061 Z M308.437222,3.47284061 L308.437222,18.0587711 L296.050757,2.31522707 C294.893143,0.810329475 293.156723,0 291.536064,0 L281.927872,0 C282.275156,0.463045414 282.506679,1.27337489 282.506679,2.31522707 L282.506679,3.47284061 L282.506679,40.5164737 L294.082814,40.5164737 L294.082814,18.5218166 L309.942119,38.4327694 C311.099733,39.8219056 312.836153,40.6322351 314.572573,40.6322351 L320.24488,40.6322351 L320.24488,2.31522707 C320.24488,1.38913624 320.707925,0.578806768 321.055209,0 L312.257346,0 C310.173642,0 308.437222,1.62065895 308.437222,3.47284061 L308.437222,3.47284061 Z M346.75423,0 L337.493321,0 C336.682992,0 334.599288,0 334.020481,3.47284061 L331.35797,19.1006233 L331.35797,18.8691006 L326.380232,3.58860196 C325.338379,0.347284061 323.833482,0.115761354 322.907391,0.115761354 C321.865539,0.115761354 321.055209,1.04185218 321.055209,2.43098842 L321.055209,28.3615316 L325.801425,40.5164737 L337.37756,40.5164737 L345.712378,2.31522707 C346.059662,1.27337489 346.406946,0.578806768 346.75423,0 L346.75423,0 Z M252.061443,57.8806768 L252.061443,50.5877115 L249.398931,50.5877115 L249.398931,48.9670525 L256.691897,48.9670525 L256.691897,50.5877115 L254.029386,50.5877115 L254.029386,57.8806768 L252.061443,57.8806768 L252.061443,57.8806768 Z M260.512021,57.8806768 L260.512021,48.8512912 L262.595726,48.8512912 L262.595726,52.3241318 L266.068566,52.3241318 L266.068566,48.8512912 L268.036509,48.8512912 L268.036509,57.8806768 L266.068566,57.8806768 L266.068566,54.0605521 L262.595726,54.0605521 L262.595726,57.8806768 L260.512021,57.8806768 L260.512021,57.8806768 Z M272.551202,57.8806768 L272.551202,48.8512912 L278.686554,48.8512912 L278.686554,50.4719501 L274.519145,50.4719501 L274.519145,52.4398931 L277.52894,52.4398931 L277.52894,54.0605521 L274.519145,54.0605521 L274.519145,56.2600178 L278.918077,56.2600178 L278.918077,57.8806768 L272.551202,57.8806768 L272.551202,57.8806768 Z M288.757792,57.8806768 L288.757792,48.8512912 L290.725735,48.8512912 L294.545859,54.5235975 L294.545859,48.8512912 L296.398041,48.8512912 L296.398041,57.8806768 L294.545859,57.8806768 L290.609973,52.0926091 L290.609973,57.8806768 L288.757792,57.8806768 L288.757792,57.8806768 Z M300.912734,57.8806768 L300.912734,48.8512912 L307.048085,48.8512912 L307.048085,50.4719501 L302.880677,50.4719501 L302.880677,52.4398931 L305.890472,52.4398931 L305.890472,54.0605521 L302.880677,54.0605521 L302.880677,56.2600178 L307.279608,56.2600178 L307.279608,57.8806768 L300.912734,57.8806768 L300.912734,57.8806768 Z M310.636687,57.8806768 L313.530721,53.1344613 L310.86821,48.8512912 L313.183437,48.8512912 L314.804096,51.5138023 L316.308994,48.8512912 L318.392698,48.8512912 L315.845948,53.1344613 L318.739982,57.8806768 L316.540516,57.8806768 L314.688335,54.7551202 L312.720392,57.8806768 L310.636687,57.8806768 L310.636687,57.8806768 Z M324.643811,57.8806768 L324.643811,50.5877115 L321.9813,50.5877115 L321.9813,48.9670525 L329.274265,48.9670525 L329.274265,50.5877115 L326.611754,50.5877115 L326.611754,57.8806768 L324.643811,57.8806768 L324.643811,57.8806768 Z M340.734639,57.8806768 L338.303651,48.8512912 L340.271594,48.8512912 L341.197685,52.9029386 C341.429207,53.713268 341.544969,54.4078362 341.66073,54.8708816 C341.776492,54.4078362 341.892253,53.713268 342.123776,52.9029386 L343.049866,48.8512912 L344.902048,48.8512912 L345.828139,53.0186999 C346.059662,54.0605521 346.175423,54.6393589 346.291184,54.9866429 C346.291184,54.6393589 346.522707,54.0605521 346.638468,53.1344613 L347.564559,48.9670525 L349.416741,48.9670525 L347.101514,57.8806768 L345.365093,57.8806768 L343.975957,51.6295637 L342.47106,57.8806768 L340.734639,57.8806768 L340.734639,57.8806768 Z M353.352627,57.8806768 L353.352627,48.8512912 L359.487979,48.8512912 L359.487979,50.4719501 L355.32057,50.4719501 L355.32057,52.4398931 L358.330365,52.4398931 L358.330365,54.0605521 L355.32057,54.0605521 L355.32057,56.2600178 L359.719501,56.2600178 L359.719501,57.8806768 L353.352627,57.8806768 L353.352627,57.8806768 Z M363.655387,57.8806768 L363.655387,48.8512912 L367.243989,48.8512912 C369.327694,48.8512912 370.485307,49.5458593 370.485307,51.0507569 C370.485307,51.6295637 370.369546,52.0926091 370.022262,52.4398931 C369.674978,52.7871772 369.327694,53.0186999 368.748887,53.1344613 C370.022262,53.365984 370.71683,54.0605521 370.71683,55.333927 C370.71683,56.1442565 370.369546,56.8388246 369.790739,57.1861086 C369.211932,57.5333927 368.401603,57.7649154 367.475512,57.7649154 L363.655387,57.8806768 L363.655387,57.8806768 Z M365.62333,52.5556545 L367.128228,52.5556545 C368.17008,52.5556545 368.633126,52.2083704 368.633126,51.5138023 C368.633126,50.8192342 368.17008,50.4719501 367.128228,50.4719501 L365.62333,50.4719501 L365.62333,52.5556545 L365.62333,52.5556545 L365.62333,52.5556545 Z M365.62333,56.3757792 L367.243989,56.3757792 C368.285841,56.3757792 368.864648,56.0284951 368.864648,55.2181656 C368.864648,54.4078362 368.285841,54.0605521 367.243989,54.0605521 L365.62333,54.0605521 L365.62333,56.3757792 L365.62333,56.3757792 L365.62333,56.3757792 Z" id="logo-thenextweb" sketch:type="MSShapeGroup"></path>
            </g>
        </g>
    </g>
</svg>