<?xml version="1.0" encoding="UTF-8" standalone="no"?>
<svg width="150px" height="24px" viewBox="0 0 150 24" version="1.1" xmlns="http://www.w3.org/2000/svg" xmlns:xlink="http://www.w3.org/1999/xlink" xmlns:sketch="http://www.bohemiancoding.com/sketch/ns">
    <!-- Generator: Sketch 3.4.4 (17249) - http://www.bohemiancoding.com/sketch -->
    <title>logo-quartz</title>
    <desc>Created with Sketch.</desc>
    <defs></defs>
    <g id="Page-1" stroke="none" stroke-width="1" fill="none" fill-rule="evenodd" sketch:type="MSPage">
        <g id="Desktop---New-home-2" sketch:type="MSArtboardGroup" transform="translate(-880.000000, -1703.000000)" fill="#000000" opacity="0.2">
            <g id="Logos" sketch:type="MSLayerGroup" transform="translate(410.000000, 1686.000000)">
                <path d="M490.426579,35.088597 C491.780148,33.2428218 492.641509,30.9048399 492.641509,28.3207546 C492.641509,22.0451189 487.59639,17 481.320755,17 C475.045119,17 470,22.0451189 470,28.3207546 C470,34.5963903 475.045119,39.6415092 481.320755,39.6415092 C483.781788,39.6415092 486.11977,38.9031991 487.965546,37.5496306 L490.795734,40.3798192 L493.37982,37.7957339 L490.426579,35.088597 L490.426579,35.088597 Z M487.842494,32.5045117 L483.658737,28.3207546 L481.074651,30.9048399 L485.258409,35.088597 C484.027892,35.8269071 482.674323,36.1960621 481.197703,36.1960621 C476.890894,36.1960621 473.445447,32.7506151 473.445447,28.4438063 C473.445447,24.1369974 476.890894,20.6915504 481.197703,20.6915504 C485.504512,20.6915504 488.949959,24.1369974 488.949959,28.4438063 C489.073011,29.7973747 488.580804,31.2739949 487.842494,32.5045117 Z M595.14356,17.4922067 L595.14356,21.1837571 L588.375718,21.1837571 L588.375718,39.1493024 L584.807219,39.1493024 L584.807219,21.1837571 L578.039377,21.1837571 L578.039377,17.4922067 L595.14356,17.4922067 Z M538.662838,17.4922067 L534.232978,17.4922067 L525.865463,39.1493024 L529.680066,39.1493024 L531.279737,34.9655453 L541.616079,34.9655453 L543.215751,39.1493024 L547.030353,39.1493024 L538.662838,17.4922067 Z M532.756358,31.6431499 L536.57096,21.9220672 L540.385562,31.6431499 L532.756358,31.6431499 Z M620,21.1837571 L607.817884,35.5808037 L620,35.5808037 L620,39.1493024 L603.018868,39.1493024 L603.018868,35.3347003 L615.200984,21.1837571 L603.88023,21.1837571 L603.88023,17.6152584 L620,17.6152584 L620,21.1837571 Z M518.851518,17.4922067 L518.851518,31.1509432 C518.851518,35.8269071 515.036916,39.5184575 510.484003,39.5184575 C505.808039,39.5184575 502.116489,35.7038554 502.116489,31.1509432 L502.116489,17.4922067 L505.808039,17.4922067 L505.808039,31.1509432 C505.561936,33.9811319 507.776866,36.0730104 510.484003,36.0730104 C513.19114,36.0730104 515.283019,33.8580802 515.283019,31.2739949 L515.283019,17.4922067 L518.851518,17.4922067 Z M566.103363,31.8892533 C568.564397,30.6587365 570.287121,28.0746512 570.287121,25.1214109 C570.287121,21.1837571 566.964725,17.6152584 562.90402,17.4922067 L554.90566,17.4922067 L554.90566,39.1493024 L558.597211,39.1493024 L558.597211,32.6275634 L561.919606,32.6275634 L569.425759,40.2567676 L572.009844,37.7957339 L566.103363,31.8892533 Z M562.657916,29.0590647 L558.597211,29.0590647 L558.597211,21.0607054 L562.657916,21.0607054 C564.872847,21.0607054 566.718622,22.783429 566.718622,24.9983592 C566.718622,27.3363411 564.872847,29.0590647 562.657916,29.0590647 L562.657916,29.0590647 Z" id="logo-quartz" sketch:type="MSShapeGroup"></path>
            </g>
        </g>
    </g>
</svg>