<?xml version="1.0" encoding="UTF-8" standalone="no"?>
<svg width="285px" height="26px" viewBox="0 0 285 26" version="1.1" xmlns="http://www.w3.org/2000/svg" xmlns:xlink="http://www.w3.org/1999/xlink" xmlns:sketch="http://www.bohemiancoding.com/sketch/ns">
    <!-- Generator: Sketch 3.4.4 (17249) - http://www.bohemiancoding.com/sketch -->
    <title>MAKE THIS YEAR Copy 2</title>
    <desc>Created with Sketch.</desc>
    <defs>
        <linearGradient x1="3.061617e-15%" y1="50%" x2="100%" y2="50%" id="linearGradient-1">
            <stop stop-color="#AE5CC8" offset="0%">
				<animate attributeName="stop-color" values="#AE5CC8 ;#715CC8 ;#4AA5AC; #AE5CC8" dur="3s" repeatCount="indefinite"></animate>
			</stop>
            <stop stop-color="#4AA5AC" offset="100%"> <animate attributeName="stop-color" values="#4AA5AC;#715CC8;#AE5CC8;#4AA5AC" dur="3s" repeatCount="indefinite"></animate></stop>
        </linearGradient>
    </defs>
    <g id="Page-1" stroke="none" stroke-width="1" fill="none" fill-rule="evenodd" sketch:type="MSPage">
        <g id="Desktop---Thanks" sketch:type="MSArtboardGroup" transform="translate(-410.000000, -60.000000)" fill="url(#linearGradient-1)">
            <path d="M410,85.5279085 L410,60.4546066 L417.273705,60.4546066 L423.35844,74.8971083 L423.795562,76.260928 L424.250168,74.8971083 L430.334902,60.4546066 L437.608608,60.4546066 L437.608608,85.5279085 L431.418964,85.5279085 L431.418964,71.7498319 L430.702085,74.2151984 L426.470746,85.5279085 L421.137861,85.5279085 L416.906523,74.2151984 L416.189644,71.7498319 L416.189644,85.5279085 L410,85.5279085 Z M440.371217,85.5279085 L449.813046,60.4546066 L456.772024,60.4546066 L466.213853,85.5279085 L459.552118,85.5279085 L457.873571,80.8069939 L448.7115,80.8069939 L447.032952,85.5279085 L440.371217,85.5279085 Z M450.599866,75.5440484 L455.985205,75.5440484 L453.764627,69.2320108 L453.292535,67.7632818 L452.820444,69.2320108 L450.599866,75.5440484 Z M468.958978,85.5279085 L468.958978,60.4546066 L475.148621,60.4546066 L475.148621,72.0645595 L482.492266,60.4546066 L489.97579,60.4546066 L482.492266,71.8197714 L491.059852,85.5279085 L483.716207,85.5279085 L478.243443,76.7854741 L475.148621,80.9468729 L475.148621,85.5279085 L468.958978,85.5279085 Z M493.735037,85.5279085 L493.735037,60.4546066 L508.667115,60.4546066 L508.667115,66.2246133 L499.924681,66.2246133 L499.924681,69.8090114 L507.338265,69.8090114 L507.338265,75.5790182 L499.924681,75.5790182 L499.924681,79.7579018 L508.667115,79.7579018 L508.667115,85.5279085 L493.735037,85.5279085 Z M517.444519,66.2246133 L517.444519,60.4546066 L538.811029,60.4546066 L538.811029,66.2246133 L531.222596,66.2246133 L531.222596,85.5279085 L525.032952,85.5279085 L525.032952,66.2246133 L517.444519,66.2246133 Z M541.556153,85.5279085 L541.556153,60.4546066 L547.745797,60.4546066 L547.745797,69.6691325 L556.593141,69.6691325 L556.593141,60.4546066 L562.800269,60.4546066 L562.800269,85.5279085 L556.593141,85.5279085 L556.593141,75.4216543 L547.745797,75.4216543 L547.745797,85.5279085 L541.556153,85.5279085 Z M567.433759,85.5279085 L567.433759,60.4546066 L573.623403,60.4546066 L573.623403,85.5279085 L567.433759,85.5279085 Z M577.137861,77.6422327 L583.362475,77.6422327 C583.502354,79.6005478 584.528123,80.5796907 586.439812,80.5796907 C587.17418,80.5796907 587.757003,80.4135861 588.188299,80.0813719 C588.619594,79.7491577 588.835239,79.2974698 588.835239,78.7262946 C588.835239,78.0851795 588.546741,77.543154 587.969738,77.1002017 C587.392734,76.6572495 586.416505,76.2201322 585.041022,75.7888366 C582.488219,74.9961852 580.608614,73.9762447 579.402152,72.7289845 C578.19569,71.4817243 577.592468,69.8498195 577.592468,67.8332213 C577.592468,65.4669238 578.355966,63.5727486 579.882986,62.1506389 C581.421662,60.7168725 583.479028,60 586.055145,60 C588.584635,60 590.572062,60.6585901 592.017485,61.9757902 C593.462908,63.2929902 594.255547,65.2221348 594.395427,67.7632818 L588.153329,67.7632818 C588.106702,67.0405702 587.876487,66.4723177 587.462677,66.0585071 C587.048866,65.6446964 586.515583,65.4377942 585.862811,65.4377942 C585.221696,65.4377942 584.723382,65.5980706 584.367855,65.9186281 C584.012327,66.2391856 583.834566,66.6908736 583.834566,67.2737054 C583.834566,67.9497904 584.096837,68.4626748 584.621385,68.8123739 C585.145934,69.162073 586.206672,69.5875339 587.803631,70.0887693 C590.438032,70.9280472 592.308894,71.9771289 593.416274,73.2360457 C594.523655,74.4949626 595.077337,76.1326956 595.077337,78.1492939 C595.077337,80.5855311 594.249728,82.5088475 592.594486,83.9193006 C590.997526,85.3064405 588.922676,86 586.369872,86 C583.479026,86 581.235157,85.2510723 579.638198,83.7531944 C578.041238,82.2553164 577.207801,80.2183496 577.137861,77.6422327 L577.137861,77.6422327 Z M603.190316,60.4546066 L610.324143,60.4546066 L614.62542,67.868191 L615.447209,69.5642233 L616.268998,67.868191 L620.605245,60.4546066 L627.721587,60.4546066 L618.559516,76.3658373 L618.559516,85.5279085 L612.369872,85.5279085 L612.369872,76.3658373 L603.190316,60.4546066 Z M630.256893,85.5279085 L630.256893,60.4546066 L645.188971,60.4546066 L645.188971,66.2246133 L636.446537,66.2246133 L636.446537,69.8090114 L643.860121,69.8090114 L643.860121,75.5790182 L636.446537,75.5790182 L636.446537,79.7579018 L645.188971,79.7579018 L645.188971,85.5279085 L630.256893,85.5279085 Z M647.164761,85.5279085 L656.60659,60.4546066 L663.565568,60.4546066 L673.007397,85.5279085 L666.345662,85.5279085 L664.667115,80.8069939 L655.505044,80.8069939 L653.826496,85.5279085 L647.164761,85.5279085 Z M657.39341,75.5440484 L662.778749,75.5440484 L660.558171,69.2320108 L660.086079,67.7632818 L659.613988,69.2320108 L657.39341,75.5440484 Z M675.752522,85.5279085 L675.752522,60.4546066 L684.162744,60.4546066 C686.98365,60.4546066 689.227519,61.2181049 690.894418,62.7451244 C692.596287,64.3071138 693.447209,66.3178537 693.447209,68.7774042 C693.447209,70.2461405 693.088773,71.5633208 692.37189,72.7289845 C691.655007,73.8946483 690.649637,74.8329935 689.35575,75.5440484 L694.513786,85.5279085 L687.502354,85.5279085 L683.061197,76.7155346 L681.942165,76.7155346 L681.942165,85.5279085 L675.752522,85.5279085 Z M681.942165,71.3127102 L684.162744,71.3127102 C686.121059,71.3127102 687.100202,70.4676166 687.100202,68.7774042 C687.100202,67.0755351 686.121059,66.2246133 684.162744,66.2246133 L681.942165,66.2246133 L681.942165,71.3127102 Z" id="MAKE-THIS-YEAR-Copy-2" sketch:type="MSShapeGroup"></path>
        </g>
    </g>
</svg>